<?xml version="1.0" standalone="no"?>
<!DOCTYPE svg PUBLIC "-//W3C//DTD SVG 20010904//EN"
 "http://www.w3.org/TR/2001/REC-SVG-20010904/DTD/svg10.dtd">
<svg version="1.0" xmlns="http://www.w3.org/2000/svg"
 width="512.000000pt" height="512.000000pt" viewBox="0 0 512.000000 512.000000"
 preserveAspectRatio="xMidYMid meet">
<metadata>
Created by potrace 1.14, written by Peter Selinger 2001-2017
</metadata>
<g transform="translate(0.000000,512.000000) scale(0.100000,-0.100000)"
fill="#000000" stroke="none">
<path d="M2300 4614 c-260 -38 -453 -96 -665 -199 -268 -131 -525 -335 -700
-555 -33 -41 -62 -77 -65 -80 -47 -45 -249 -411 -265 -480 0 -3 -11 -32 -24
-65 -26 -68 -79 -269 -87 -330 -3 -22 -7 -45 -9 -52 -19 -57 -27 -420 -13
-553 49 -461 266 -909 603 -1245 337 -338 758 -542 1240 -602 77 -10 381 -10
465 -1 75 9 174 25 198 32 10 3 29 7 43 10 114 19 307 89 467 168 550 271 957
780 1101 1378 16 69 33 149 36 179 4 30 9 63 12 75 13 50 11 396 -2 496 -53
409 -219 787 -482 1100 -334 397 -820 659 -1343 725 -131 16 -397 16 -510 -1z
m460 -249 c300 -28 644 -165 905 -360 87 -65 258 -230 321 -310 251 -317 387
-676 408 -1078 l4 -68 -82 5 c-92 6 -185 15 -203 21 -10 3 -9 14 2 46 25 69 7
118 -55 149 -87 44 -151 17 -186 -79 -10 -28 -22 -51 -26 -51 -29 0 -295 118
-355 157 l-22 15 34 45 c37 48 38 53 35 93 -5 61 -75 120 -141 120 -28 0 -42
-10 -86 -56 l-52 -57 -43 35 c-52 44 -191 184 -215 217 -16 24 -16 25 36 70
77 68 80 132 9 199 -53 49 -107 45 -175 -12 l-32 -27 -27 43 c-34 53 -94 181
-128 271 l-25 68 27 10 c130 48 158 97 113 196 -31 68 -85 85 -165 54 -34 -14
-45 -3 -47 44 0 17 -2 39 -5 50 -2 11 -6 61 -10 112 l-6 91 64 -3 c35 -3 92
-7 128 -10z m-434 -62 c1 -80 13 -210 24 -258 15 -62 14 -64 -54 -95 -92 -41
-114 -82 -87 -162 15 -46 63 -88 101 -88 15 0 47 7 70 15 24 8 44 14 46 13 1
-2 19 -46 39 -98 39 -99 93 -209 145 -297 l31 -51 -43 -37 c-75 -64 -85 -105
-41 -173 30 -45 81 -73 123 -65 14 2 42 17 62 34 44 35 51 36 71 7 20 -32 181
-195 242 -245 l49 -42 -34 -47 c-49 -69 -47 -107 8 -166 60 -65 136 -58 192
17 19 25 37 45 41 45 5 0 31 -14 60 -30 74 -44 243 -123 322 -151 37 -13 67
-27 67 -30 0 -4 -7 -26 -15 -49 -8 -23 -15 -55 -15 -70 0 -84 140 -144 205
-88 14 13 36 50 48 83 25 65 27 66 117 49 43 -8 173 -18 229 -19 l53 0 -6 -50
c-19 -158 -76 -341 -161 -518 -236 -493 -676 -853 -1205 -987 -63 -16 -139
-32 -167 -36 l-53 -6 -1 38 c-3 77 -15 198 -29 273 -6 30 -7 58 -3 61 5 4 34
17 65 29 31 13 64 31 73 41 52 57 22 165 -55 203 -26 14 -46 11 -135 -18 -17
-5 -23 3 -44 62 -24 69 -122 278 -163 346 l-22 37 23 17 c76 52 102 108 78
164 -24 55 -70 92 -116 92 -37 0 -90 -27 -117 -60 -9 -11 -19 -4 -49 32 -47
58 -188 200 -239 242 l-40 32 33 45 c41 58 46 96 17 138 -33 50 -82 78 -123
73 -35 -4 -83 -29 -83 -43 0 -4 -12 -20 -25 -35 l-25 -28 -67 39 c-98 57 -175
94 -283 137 -52 20 -96 38 -98 39 -1 2 5 22 13 46 8 23 15 55 15 71 0 40 -45
87 -100 103 -39 12 -51 12 -82 -1 -31 -12 -40 -24 -64 -81 -15 -37 -29 -69
-30 -71 -2 -2 -31 2 -66 7 -123 21 -192 28 -301 31 -17 1 -18 7 -13 55 10 78
60 269 97 365 51 133 158 334 221 416 5 6 27 35 51 65 106 138 286 304 442
408 68 45 229 130 310 164 131 55 334 109 435 116 l35 2 1 -57z m-1362 -1804
c27 -5 51 -10 52 -12 2 -2 -4 -25 -12 -53 -15 -45 -15 -53 -1 -87 12 -28 27
-43 59 -57 92 -42 150 -15 184 83 12 35 21 47 36 47 37 0 277 -107 341 -152
l27 -20 -26 -31 c-41 -49 -56 -91 -43 -124 21 -57 83 -103 139 -103 23 0 41
11 75 46 25 25 45 50 45 55 0 22 31 5 91 -48 65 -59 142 -139 181 -188 l21
-27 -51 -46 c-73 -67 -80 -117 -25 -183 55 -64 109 -67 182 -10 l39 31 25 -42
c48 -83 147 -307 147 -333 0 -4 -24 -17 -52 -30 -73 -33 -78 -37 -93 -80 -11
-34 -11 -44 7 -84 11 -25 26 -53 34 -63 23 -24 75 -30 122 -14 35 13 41 13 46
0 7 -19 20 -155 20 -224 l1 -55 -75 2 c-307 10 -667 129 -932 309 -485 330
-777 846 -812 1437 l-5 78 102 -6 c56 -4 124 -11 151 -16z"/>
</g>
</svg>
